/* XPM */
static char *_632756533373[] = {
/* columns rows colors chars-per-pixel */
"32 32 8 1 ",
"  c #211F30",
". c #CC3048",
"X c #E44A4A",
"o c #28860F",
"O c #72A11D",
"+ c #F18B72",
"@ c #A4CC42",
"# c None",
/* pixels */
"################################",
"################################",
"################################",
"################################",
"################################",
"################################",
"################################",
"############   #################",
"############ @O ################",
"##########    oO ###############",
"######### @Ooo o ###############",
"#########    ooo     ###########",
"########## .X X .XXX. ##########",
"######### XXXXXXXXXXX. #########",
"######### X++X+XXXXXX. #########",
"######### X++XXXXXX.X. #########",
"######### .XXXXXXXXXX. #########",
"########## .XXXXXXXX. ##########",
"########## .......... ##########",
"########### ........ ###########",
"############        ############",
"################################",
"################################",
"################################",
"################################",
"################################",
"################################",
"################################",
"################################",
"################################",
"################################",
"################################"
};
