/* XPM */
static char *_632756296990[] = {
/* columns rows colors chars-per-pixel */
"32 32 8 1 ",
"  c #1D1D1D",
". c #282828",
"X c gray20",
"o c #343434",
"O c gray26",
"+ c #6C6C6C",
"@ c gray68",
"# c None",
/* pixels */
"################################",
"################################",
"################################",
"############         ###########",
"##########  .XoOOOoX.  #########",
"######### .ooO++@++Ooo. ########",
"######## .ooO++@@@++Ooo. #######",
"######## ooOO+++++++OOoo #######",
"####### .ooOO+++++++OOoo. ######",
"####### .ooOOO+++++OOOoo. ######",
"#######  .oOOOOOOOOOOOo.  ######",
"###### .X XXOOOOOOOOOXo X. #####",
"###### .. XXXOOOOOOOXXX .. #####",
"###### .. XXXXXXXXXXXXX .o #####",
"###### OX..XXXXXXXXXXX..XO #####",
"####### OX..XXXXXXXXX..XO ######",
"######## OOX..XXXXX..XOO #######",
"#########  O+++++++++O  ########",
"######### .           . ########",
"######## o .o.oOOOo.o.oo #######",
"####### .O .Oo.....oO oOo ######",
"####### oo .oOOOOOOOo .OOo #####",
"######  .. .ooOOOOOoo. oOO  ####",
"###### .   .ooooooooo. .o O. ###",
"####### .. ..ooooooo..   OOo ###",
"########     .......   # o    ##",
"########## oOOOOoOOOo. #  o. o #",
"########## .oOOo.oOo.. # o. .O. ",
"########## . .        ###  # .  ",
"########### o.. # ... #######  #",
"########### .oo ##   ###########",
"########### ooo ################"
};
