/* XPM */
static char *_632755169478[] = {
/* columns rows colors chars-per-pixel */
"32 32 35 1 ",
"  c #181626",
". c #132529",
"X c #2F2F2F",
"o c #534721",
"O c #5A2853",
"+ c #15454A",
"@ c #1D796D",
"# c #5F5F5F",
"$ c #C70000",
"% c #FF2627",
"& c #9D704C",
"* c #9C5369",
"= c #2EB545",
"- c #3DFD67",
"; c #C79D00",
": c #E3B700",
"> c #FFD600",
", c #FFFC00",
"< c #D7906E",
"1 c #9F17AD",
"2 c #E07993",
"3 c #2BB68E",
"4 c #6DFFA3",
"5 c #828189",
"6 c #A0A0A0",
"7 c #EEBE93",
"8 c #FFA3B0",
"9 c #FFE1AF",
"0 c gray76",
"q c #CECECE",
"w c #CCD0CE",
"e c #FECBD0",
"r c gray91",
"t c #F4F4F4",
"y c None",
/* pixels */
"yyyyyyyyyyyyyyyyyyyyyyyyyyyyyyyy",
"yyyyyyyyyyyyyyyyyyyyyyyyyyyyyyyy",
"yyyyyy***yyyyy**o**yyyyy***yyyyy",
"yyyyy*222*y**o2o,o2o**y*222*yyyy",
"yyyy*2882**2o,o>>>o,o2**2882*yyy",
"yyyy*282*288>$::%::$>882*282*yyy",
"yyy*222*288o;:88888:;o882*222*yy",
"yyy*22*2888;eeeeeeeee;8882*22*yy",
"yyy*22*8888888888888888888*22*yy",
"yyy*2*288288888888888882882*2*yy",
"yyy*2*282882882888288288282*2*yy",
"yyy*2*222882882888288288222*2*yy",
"yyyy**2o28222222222222282o2*22*y",
"yyyy**o<22779999999997722<o*22*y",
"yyyy*2o<2<OOOO99999OOOO<2<o222*y",
"yyyy*22o2OOq w99999w qOO2o2222*y",
"yyyyy*22*&Ot 5999995 tO&**2222*y",
"yyyyy*22.o<71199999117<o.*2222*y",
"yyyyy*2.++o<799999997<o+@.*222*y",
"yyyyy*.+@@+o&<77777<&o+33@.222*y",
"yyyyy*.+3r06ooooooooo60r33.*22*y",
"yyyyy.660@+@==-777-==@+3r3@.22*y",
"yyyyyo&=++.@3--4-4--3@.@3r3.*2*y",
"yyyyyo&&o...@33@4@33@..-4r3.y**y",
"yyyyy.oo..X=++++@++++=o99=r.y*yy",
"yyyy.+6#..X=-4-333-4-=o997r6.yyy",
"yyyy.@0#..=+=-64446-=+o<7&o0.yyy",
"yyy.+3r#.++@360000633@+ooo#0+.yy",
"yy.+@3r#+@330rrrrr0033@++.#6++.y",
"y.+@33r#+3366600066633@++..#66#y",
"y#60rr#.+330rrrrrrr06@@+...###yy",
"yy####yy.+@6600rr0066+..yyyyyyyy"
};
