/* XPM */
static char *_632755183142[] = {
/* columns rows colors chars-per-pixel */
"32 32 35 1 ",
"  c #181626",
". c #132529",
"X c #2F2F2F",
"o c #534721",
"O c #5A2853",
"+ c #15454A",
"@ c #1D796D",
"# c #5F5F5F",
"$ c #C70000",
"% c #FF2627",
"& c #9D704C",
"* c #9C5369",
"= c #2EB545",
"- c #3DFD67",
"; c #C79D00",
": c #E3B700",
"> c #FFD600",
", c #FFFC00",
"< c #D7906E",
"1 c #9F17AD",
"2 c #E07993",
"3 c #2BB68E",
"4 c #6DFFA3",
"5 c #828189",
"6 c #A0A0A0",
"7 c #EEBE93",
"8 c #FFA3B0",
"9 c #FFE1AF",
"0 c gray76",
"q c #CECECE",
"w c #CCD0CE",
"e c #FECBD0",
"r c gray91",
"t c #F4F4F4",
"y c None",
/* pixels */
"yyyyyyyyyyyyyyyyyyyyyyyyyyyyyyyy",
"yyyyyyyyyyyyyyyyyyyyyyyyyyyyyyyy",
"yyyyyyyyyyyyyy*****yyyy****yyyyy",
"yyyyyyyyyoy***22222****2222*yyyy",
"yyyyyyyyo>o2oe88888e8*288882*yyy",
"yyyyyyyo;:>o,o888888e*8e888e2*yy",
"yyyyyyyo;$::%,o88888e*28eee88*yy",
"yyyyyy*28888::>8888ee8*28e888*yy",
"yyyyyy*888888eeeeeee888*88888*yy",
"yyyyy*28288888888888888*88888*yy",
"yyyyy*28288288288288888*288882*y",
"yyyyy*222882882888282888*88882*y",
"yyyyyy*22222222288222288*28882*y",
"yyyyyyy*o7799999282oo228*28822*y",
"yyyyyyyyo799OOOO92279o28*22822*y",
"yyyyyyyyo799w qOO92&9o22*22822*y",
"yyyyyyyyo<995 tO992&7o22*22222*y",
"yyyyyyyyo&791199992<o222**2222*y",
"yyyyyyyyyo<7999997<<*22***222*yy",
"yyyyyyyyyyo&<<777<<&&**2*y*22*yy",
"yyyyyyyyyyyoooooooo66##2*yy*2*yy",
"yyyyyyyyyyyo799-=+@@rr0#yyy*2*yy",
"yyyyyyyyyyX=-44-60r3@0r6#yyy*yyy",
"yyyyyyyyyyX+@3333+3rrr06#yyyyyyy",
"yyyyyyyyyyy.+++@@@.3@-r0+.yyyyyy",
"yyyyyyyyyyy+@-44--=o=99r3.yyyyyy",
"yyyyyyyyyyX=-@=-+++o<99r3.yyyyyy",
"yyyyyyyyy#660@33@@@+o<<0@..yyyyy",
"yyyyyyyy#60rr33333@@+oo0@+..##yy",
"yyyyyyy#6600033333@++#0r3@++.6#y",
"yyyyyyy#60rrrr333@@++#rr33@#6#yy",
"yyyyyyyy#60rrr33@@++++#0rr06#yyy"
};
