/* XPM */
static char *_632755204446[] = {
/* columns rows colors chars-per-pixel */
"32 32 35 1 ",
"  c #181626",
". c #132529",
"X c #2F2F2F",
"o c #534721",
"O c #5A2853",
"+ c #15454A",
"@ c #1D796D",
"# c #5F5F5F",
"$ c #C70000",
"% c #FF2627",
"& c #9D704C",
"* c #9C5369",
"= c #2EB545",
"- c #3DFD67",
"; c #C79D00",
": c #E3B700",
"> c #FFD600",
", c #FFFC00",
"< c #D7906E",
"1 c #9F17AD",
"2 c #E07993",
"3 c #2BB68E",
"4 c #6DFFA3",
"5 c #828189",
"6 c #A0A0A0",
"7 c #EEBE93",
"8 c #FFA3B0",
"9 c #FFE1AF",
"0 c gray76",
"q c #CECECE",
"w c #CCD0CE",
"e c #FECBD0",
"r c gray91",
"t c #F4F4F4",
"y c None",
/* pixels */
"yyyyyyyyyyyyyyyyyyyyyyyyyyyyyyyy",
"yyyyyy****yyyy*****yyyyyyyyyyyyy",
"yyyyy*2222****22222***yoyyyyyyyy",
"yyyy*288882*8e88888eo2o>oyyyyyyy",
"yyy*2e888e8*e888888o,o>:;oyyyyyy",
"yyy*88eee82*e88888o,%::$;oyyyyyy",
"yyy*888e82*8ee8888>::88882*yyyyy",
"yyy*88888*888eeeeeee888888*yyyyy",
"yyy*88888*88888888888888282*yyyy",
"yyy*88888*88888288288288282*yyyy",
"yyy*88888*88282888288288222*yyyy",
"yyy*88882*8222288222222222*yyyyy",
"yyy*88882*22oo2829999977o*yyyyyy",
"yyy*28882*2o97229OOOO997oyyyyyyy",
"yyy*28822*2o9&29OOq w997oyyyyyyy",
"yyyy*2822*2o7&299Ot 599<oyyyyyyy",
"yyyy*2822*22o<299991197&oyyyyyyy",
"yyyy*2222*22*<<7999997<oyyyyyyyy",
"yyyyy*22*y**&&<<777<<&oyyyyyyyyy",
"yyyyy*22*y##66ooooooooyyyyyyyyyy",
"yyyyy*2*y#0rr@@+=-997oyyyyyyyyyy",
"yyyy*2*y#6r0@3r06-44-=Xyyyyyyyyy",
"yyy***yy#66+r03+3333@+Xyyyyyyyyy",
"yyyyyyyy.+@r033.@@+++.yyyyyyyyyy",
"yyyyyyyy.+@r--=o-44-@+yyyyyyyyyy",
"yyyyyyy.+@0r799o+-=@-=Xyyyyyyyyy",
"yyyyyyy.+@r0<99o@3@@666#yyyyyyyy",
"yyyy##.++@r6ooo@3330rr06#yyyyyyy",
"yyy#6..+@r0#++@33336006#6#yyyyyy",
"yyy#6#++@r6#+@@333@rrrr06#yyyyyy",
"yyyy#600r6#++@@333rrr006#yyyyyyy",
"yyyyy#666#.....+++666##yyyyyyyyy"
};
