/* XPM */
static char *_632756289398[] = {
/* columns rows colors chars-per-pixel */
"32 32 9 1 ",
"  c #0C0C0C",
". c #1D1D1D",
"X c #282828",
"o c gray20",
"O c #343434",
"+ c gray26",
"@ c #6C6C6C",
"# c gray68",
"$ c None",
/* pixels */
"$$$$$$$$$$$$$$$$$$$$$$$$$$$$$$$$",
"$$$$$$$$$$$$$$$$$$$$$$$$$$$$$$$$",
"$$$$$$$$$$$$$$$$$$$$$$$$$$$$$$$$",
"$$$$$$$$$$$$.........$$$$$$$$$$$",
"$$$$$$$$$$..XoO+++OoX..$$$$$$$$$",
"$$$$$$$$$.XOO+@@#@@+OOX.$$$$$$$$",
"$$$$$$$$.XOO+@@###@@+OOX.$$$$$$$",
"$$$$$$$$.OO++@@@@@@@++OO.$$$$$$$",
"$$$$$$$.XOO++@@@@@@@++OOX.$$$$$$",
"$$$$$$$.XOO+++@@@@@+++OOX.$$$$$$",
"$$$$$$$.XXOOO+++++++OOOXX.$$$$$$",
"$$$$$$.XXOO+@@#####@@+ooXX.$$$$$",
"$$$$$$.XO++...........++oX.$$$$$",
"$$$$$$.O+..           ..+o.$$$$$",
"$$$$$$.+.. X++X   X++X ..+.$$$$$",
"$$$$$$.+.. XXX XXX XXX ..+.$$$$$",
"$$$$$$$..X.   X...X   .X..$$$$$$",
"$$$$$$$$..X....+O+....X..$$$$$$$",
"$$$$$$$$$..OX+O+O+O+XO..$$$$$$$$",
"$$$$$$$$.XX.XOX+X+XOX..O.$$$$$$$",
"$$$$$$$.XOXX.........X.+O.$$$$$$",
"$$$$$$$.O+.XO++O.O++OX.OXX.$$$$$",
"$$$$$$...+..XXXX.XXXX..XX.X.$$$$",
"$$$$$$.+X..XO++O.O++OX...XX.$$$$",
"$$$$$$.XOX.XOOOX.XOOOX.$$..$$$$$",
"$$$$$$..XOX............$$$$$$$$$",
"$$$$$$.X.XO.+++OOO+++X.$$$$$$$$$",
"$$$$$$$..X+O.+OXXXO++X.$$$$$$$$$",
"$$$$$$$.X.X+O.....XXXX.$$$$$$$$$",
"$$$$$$$.X..X+X..$.XO+.$$$$$$$$$$",
"$$$$$$$$.$$.X..$$.OXX.$$$$$$$$$$",
"$$$$$$$$$$$$..$$$.OOO.$$$$$$$$$$"
};
