/* XPM */
static char *_632756275804[] = {
/* columns rows colors chars-per-pixel */
"32 32 9 1 ",
"  c #0C0C0C",
". c #1D1D1D",
"X c #282828",
"o c gray20",
"O c #343434",
"+ c gray26",
"@ c #6C6C6C",
"# c gray68",
"$ c None",
/* pixels */
"$$$$$$$$$$$$$$$$$$$$$$$$$$$$$$$$",
"$$$$$$$$$$$$$$$$$$$$$$$$$$$$$$$$",
"$$$$$$$$$$$$$$$$$$$$$$$$$$$$$$$$",
"$$$$$$$$$$$$.........$$$$$$$$$$$",
"$$$$$$$$$$..XoO+++OoX..$$$$$$$$$",
"$$$$$$$$$.XOO+@@#@@+OOX.$$$$$$$$",
"$$$$$$$$.XOO+@@###@@+OOX.$$$$$$$",
"$$$$$$$$.OO++@@@@@@@++OO.$$$$$$$",
"$$$$$$$.XOO++@@@@@@@++OOX.$$$$$$",
"$$$$$$$.XOO+++@@@@@+++OOX.$$$$$$",
"$$$$$$$.XXOOO+++++++OOOXX.$$$$$$",
"$$$$$$.XXoo+@@#####@@+OOXX.$$$$$",
"$$$$$$.Xo++...........++OX.$$$$$",
"$$$$$$.o+..           ..+O.$$$$$",
"$$$$$$.+.. X++X   X++X ..+.$$$$$",
"$$$$$$.+.. XXX XXX XXX ..+.$$$$$",
"$$$$$$$..X.   X...X   .X..$$$$$$",
"$$$$$$$$..X....+O+....X..$$$$$$$",
"$$$$$$$$$..OX+O+O+O+XO..$$$$$$$$",
"$$$$$$$$.O..XOX+X+XOX.XX.$$$$$$$",
"$$$$$$..O+.X.........XXOX.$$$$$$",
"$$$$$.X.XO.XO++O.O++OX.+O.$$$$$$",
"$$$$.X..XX..XXXX.XXXX..++O.$$$$$",
"$$$.X.XX...XO++O.O++OX.XXX.$$$$$",
"$$.OXX..$$.XOOOX.XOOOX.++O.$$$$$",
"$.OX..X.$$.............++O.$$$$$",
"$$..$$.$$$.X+++OOO+++X.OOX.$$$$$",
"$$$$$$$$$$.X++OXXXO+OX....$$$$$$",
"$$$$$$$$$$.XXXX....XX.$$$$$$$$$$",
"$$$$$$$$$$$.+OX.$.XOO.$$$$$$$$$$",
"$$$$$$$$$$$.XXO.$$...$$$$$$$$$$$",
"$$$$$$$$$$$.OOO.$$$$$$$$$$$$$$$$"
};
