/* XPM */
static char *_632756303323[] = {
/* columns rows colors chars-per-pixel */
"32 32 8 1 ",
"  c #1D1D1D",
". c #282828",
"X c gray20",
"o c #343434",
"O c gray26",
"+ c #6C6C6C",
"@ c gray68",
"# c None",
/* pixels */
"################################",
"################################",
"################################",
"############         ###########",
"##########  .XoOOOoX.  #########",
"######### .ooO++@++Ooo. ########",
"######## .ooO++@@@++Ooo. #######",
"######## ooOO+++++++OOoo #######",
"####### .ooOO+++++++OOoo. ######",
"####### .ooOOO+++++OOOoo. ######",
"#######  .oOOOOOOOOOOOo.  ######",
"###### .X oXOOOOOOOOOXX X. #####",
"###### .. XXXOOOOOOOXXX .. #####",
"###### o. XXXXXXXXXXXXX .. #####",
"###### OX..XXXXXXXXXXX..XO #####",
"####### OX..XXXXXXXXX..XO ######",
"######## OOX..XXXXX..XOO #######",
"#########  O+++++++++O  ########",
"######### .           . ########",
"######## oo.o.oOOOo.o. o #######",
"####### oOo Oo.....oO. O. ######",
"###### oOO. oOOOOOOOo. oo ######",
"#####  OOo .ooOOOOOoo. ..  #####",
"#### .O o. .ooooooooo.   . #####",
"#### oOO   ..ooooooo.. .. ######",
"#### .oo #   .......       #####",
"#####   ## .oOOOoOOOOo   . #####",
"########## ..oOo.oOOo. ## ######",
"###########        . . #########",
"########### ... # ..o ##########",
"############   ## oo. ##########",
"################# ooo ##########"
};
