/* XPM */
static char *_632755190752[] = {
/* columns rows colors chars-per-pixel */
"32 32 35 1 ",
"  c #181626",
". c #132529",
"X c #2F2F2F",
"o c #534721",
"O c #5A2853",
"+ c #15454A",
"@ c #1D796D",
"# c #5F5F5F",
"$ c #C70000",
"% c #FF2627",
"& c #9D704C",
"* c #9C5369",
"= c #2EB545",
"- c #3DFD67",
"; c #C79D00",
": c #E3B700",
"> c #FFD600",
", c #FFFC00",
"< c #D7906E",
"1 c #9F17AD",
"2 c #E07993",
"3 c #2BB68E",
"4 c #6DFFA3",
"5 c #828189",
"6 c #A0A0A0",
"7 c #EEBE93",
"8 c #FFA3B0",
"9 c #FFE1AF",
"0 c gray76",
"q c #CECECE",
"w c #CCD0CE",
"e c #FECBD0",
"r c gray91",
"t c #F4F4F4",
"y c None",
/* pixels */
"yyyyyyyyyyyyyyyyyyyyyyyyyyyyyyyy",
"yyyyyyyyyyyyyy*****yyyy****yyyyy",
"yyyyyyyyyoy***22222****2222*yyyy",
"yyyyyyyyo>o2oe88888e8*288882*yyy",
"yyyyyyyo;:>o,o888888e*8e888e2*yy",
"yyyyyyyo;$::%,o88888e*28eee88*yy",
"yyyyyy*28888::>8888ee8*28e888*yy",
"yyyyyy*888888eeeeeee888*88888*yy",
"yyyyy*28288888888888888*88888*yy",
"yyyyy*28288288288288888*88888*yy",
"yyyyy*22288288288828288*88888*yy",
"yyyyyy*2222222228822228*28888*yy",
"yyyyyyy*o7799999282oo22*28888*yy",
"yyyyyyyyo799OOOO92279o2*28882*yy",
"yyyyyyyyo799w qOO92&9o2*22882*yy",
"yyyyyyyyo<995 tO992&7o2*2282*yyy",
"yyyyyyyyo&791199992<o22*2282*yyy",
"yyyyyyyyyo<7999997<<*22*2222*yyy",
"yyyyyyyyyyo&<<777<<&&**y*22*yyyy",
"yyyyyyyyyyyoooooooo66##y*22*yyyy",
"yyyyyyyyyyyo799-=+@@rr0#y*2*yyyy",
"yyyyyyyyyyX=-44-60r3@0r6#y*2*yyy",
"yyyyyyyyyyX+@3333+30r+66#yy***yy",
"yyyyyyyyyyy.+++@@.330r@+.yyyyyyy",
"yyyyyyyyyyy+@-44-o=--r@+.yyyyyyy",
"yyyyyyyyyyX=-@=-+o997r0@+.yyyyyy",
"yyyyyyyyy#666@@3@o99<0r@+.yyyyyy",
"yyyyyyyy#60rr0333@ooo6r@++.##yyy",
"yyyyyyy#6#60063333@++#0r@+..6#yy",
"yyyyyyy#60rrrr@333@@+#6r@++#6#yy",
"yyyyyyyy#600rrr333@@++#6r006#yyy",
"yyyyyyyyyy##666+++.....#666#yyyy"
};
