/* XPM */
static char *d18b150aef1d487f8b8ee0cc6c235cdbcTexrQQqnTTLIK4G[] = {
/* columns rows colors chars-per-pixel */
"32 32 13 1 ",
"  c None",
". c #132529",
"X c #15454A",
"o c #1D796D",
"O c #5F5F5F",
"+ c #9C5369",
"@ c #E07993",
"# c #2BB68E",
"$ c #A0A0A0",
"% c #FFA3B0",
"& c gray76",
"* c #FECBD0",
"= c gray91",
/* pixels */
"                                ",
"      +++     +++++     +++     ",
"     +@@@+ +++@@@@@+++ +@@@+    ",
"    +@%%%@+@%*%%%%%*%@+@%%%@+   ",
"    +*%%*@+%*%%%%%%%*%+@*%%*+   ",
"   +@%**%@+**%%%%%%%**+@%**%@+  ",
"   +%%*%@+%***%%%%%***%+@%*%%+  ",
"   +%%%%+@%%*********%%@+%%%%+  ",
"   +%%%%+%%%%*******%%%%+%%%%+  ",
"   +%%%%+%%%%%%%%%%%%%%%+%%%%+  ",
"   +@%%%+%%%%%%%%%%%%%%%+%%%@+  ",
"   +@%%%+%@%%%%%%%%%%%@%+%%%@+  ",
"   +@@%%+@@%%%%%%%%%%%@@+%%@@+  ",
"   +@@%@+@@@%%%%@%%%%@@@+@%@@+  ",
"   +@@%@+@@@@%%@@@%%@@@@+@%@@+  ",
"    +@@@+@@@@@@@@@@@@@@@+@@@+   ",
"    +@@@+++@@@@@@@@@@@+++@@@+   ",
"    +@@@+$$++@@@@@@@++$$+@@@+   ",
"    +@@+o$&$$+++++++$$&$o+@@+   ",
"    +@@+#$&=&&$$$$$&&=&$#+@@+   ",
"    +@+##o$&=========&$o##+@+   ",
"   +@+X##oX$&=======&$Xo##X+@+  ",
"  +++.o##oXX$&&===&&$XXo##o.+++ ",
"     .o##oXooo$$$$$oooXo##o.    ",
"     .X###oo##oXXXo##oo###X.    ",
"    OXXo##oo#########oo##oXXO   ",
"   O$ooX###o#########o###Xoo$O  ",
"  O$oo#oo###o#######o###oo#oo$O ",
"  O$o####oo###########oo####o$O ",
"   O$&&###################&&$O  ",
"    OO$$&&&===========&&&$$OO   ",
"      OOOOOO$$$$$$$$$OOOOOO     "
};
