/* XPM */
static char *cefb7a7c03ff420ee492a5cf6350086eZyFXjLqFBm0ZAs5f[] = {
/* columns rows colors chars-per-pixel */
"32 32 13 1 ",
"  c None",
". c #031A1F",
"X c #054147",
"o c #107B6D",
"O c #5F5F5F",
"+ c #9E5169",
"@ c #E27B95",
"# c #21B890",
"$ c #A2A2A2",
"% c #FFA6B3",
"& c gray77",
"* c #FECDD2",
"= c #EAEAEA",
/* pixels */
"                                ",
"                                ",
"      +++     +++++     +++     ",
"     +@@@+ +++@@@@@+++ +@@@+    ",
"    +@%%%@+@%*%%%%%*%@+@%%%@+   ",
"    +*%%*@+%*%%%%%%%*%+@*%%*+   ",
"   +@%**%@+**%%%%%%%**+@%**%@+  ",
"   +%%*%@+%***%%%%%***%+%%*%%+  ",
"   +%%%%+@%%*********%%+%%%%%+  ",
"   +%%%%+%%%%*******%%%+%%%%%+  ",
"   +%%%%+%%%%%%%%%%%%%%+%%%%%+  ",
"  +@%%%+@%%%%%%%%%%%%%%+%%%%+   ",
"  +@%%%+@%@%%%%%%%%%%%@+%%%%+   ",
"  +@%%@+@@@%%%%%%%%%%%@+%%%@+   ",
"  +@%%@+@@@@%%%%@%%%%@@+%%%@+   ",
"  +@%@@++@@@@%%@@@%%@@@+%%@@+   ",
"  +@%@@++@@@@@@@@@@@@@@+@%@+    ",
"  +@@@+  ++@@@@@@@@@@@++@%@+    ",
"  +@@@+..$$++@@@@@@@++$+@@@+    ",
"  +@@@+Xo$&$$+++++++$$&$+@@+    ",
"  +@@+.o#$&=&&$$$$$&&=&$+@@@+   ",
"  +@+.Xo#o$&=========&$o#+@@+   ",
"  +@+.Xo#oX$&=======&$Xo##+@+   ",
"  ++ .ooooXX$&&===&&$XXo###++   ",
"  +  .oooXoooo$$$$$ooXo####o+   ",
"    .XXooooo##oXXXo#ooo###oXXO  ",
"   O.Xo#oo##########oo###oXXXO  ",
"  O$Xo###o##########o##o#XXXX$O ",
" O$=o##############o###ooXoX&$O ",
" O$&=#####oo##########oooo&$$O  ",
"  O$&==##ooooo######oooo&&$OO   ",
"   OO$$&&&=======&&&&&$$$OO     "
};
