/* XPM */
static char *a238440cc52a4d58eed7d5b6e8c2ee28W5v1Y0LCBYE8zx1S[] = {
/* columns rows colors chars-per-pixel */
"32 32 35 1 ",
"  c None",
". c #181626",
"X c #132529",
"o c #2F2F2F",
"O c #534721",
"+ c #5A2853",
"@ c #15454A",
"# c #1D796D",
"$ c #5F5F5F",
"% c #C70000",
"& c #FF2627",
"* c #9D704C",
"= c #9C5369",
"- c #2EB545",
"; c #3DFD67",
": c #C79D00",
"> c #E3B700",
", c #FFD600",
"< c #FFFC00",
"1 c #D7906E",
"2 c #9F17AD",
"3 c #E07993",
"4 c #2BB68E",
"5 c #6DFFA3",
"6 c #828189",
"7 c #A0A0A0",
"8 c #EEBE93",
"9 c #FFA3B0",
"0 c #FFE1AF",
"q c gray76",
"w c #CECECE",
"e c #CCD0CE",
"r c #FECBD0",
"t c gray91",
"y c #F4F4F4",
/* pixels */
"                                ",
"              =====    ====     ",
"         O ===33333====3333=    ",
"        O,O3Or99999r9=399993=   ",
"       O:>,O<O999999r=9r999r3=  ",
"       O:%>>&<O99999r=39rrr99=  ",
"      =39999>>,9999rr9=39r999=  ",
"      =999999rrrrrrr999=99999=  ",
"     =39399999999999999=99999=  ",
"     =39399399399399999=99999=  ",
"     =33399399399939399=99999=  ",
"      =33333333399333399=99999= ",
"       =O8800000393OO339=99999= ",
"        O800++++03380O39=39999= ",
"        O800e.w++03*0O33=39993= ",
"        O1006.y+003*8O33=33993= ",
"        O*8022000031O333=33993= ",
"         O1800000811=33===3993= ",
"          O*1188811**==3==339=  ",
"           OOOOOOOO77$$3= =33=  ",
"           O800;-@##ttq$3==33=  ",
"          o-;55;7qt4#qt7$= =33= ",
"          o@#444X4qt4#77$   =3= ",
"           X@@@O;44qt4#@@X   =  ",
"           @#;O00;##qt##@X      ",
"          o-;#O00-@XXt4##@X     ",
"         $7774O181O@Xqt4#@X$    ",
"        $77qtq4OOO##@Xt44@@X$$  ",
"       $7$7qq7444444#@qt4#@XX7$ ",
"       $77qtttt#4444#@$qtttq77$ ",
"        $77qqtt####@@XX$$7q7$$  ",
"                                "
};
