/* XPM */
static char *_4453dfb82904c37c253b14bc9045476aqsWqbgz6cUsAfk3[] = {
/* columns rows colors chars-per-pixel */
"32 32 35 1 ",
"  c None",
". c #181626",
"X c #132529",
"o c #2F2F2F",
"O c #534721",
"+ c #5A2853",
"@ c #15454A",
"# c #1D796D",
"$ c #5F5F5F",
"% c #C70000",
"& c #FF2627",
"* c #9D704C",
"= c #9C5369",
"- c #2EB545",
"; c #3DFD67",
": c #C79D00",
"> c #E3B700",
", c #FFD600",
"< c #FFFC00",
"1 c #D7906E",
"2 c #9F17AD",
"3 c #E07993",
"4 c #2BB68E",
"5 c #6DFFA3",
"6 c #828189",
"7 c #A0A0A0",
"8 c #EEBE93",
"9 c #FFA3B0",
"0 c #FFE1AF",
"q c gray76",
"w c #CECECE",
"e c #CCD0CE",
"r c #FECBD0",
"t c gray91",
"y c #F4F4F4",
/* pixels */
"                                ",
"      ====    =====             ",
"     =3333====33333=== O        ",
"    =399993=9r99999rO3O,O       ",
"   =3r999r9=r999999O<O,>:O      ",
"   =99rrr93=r99999O<&>>%:O      ",
"   =999r93=9rr9999,>>99993=     ",
"   =99999=999rrrrrrr999999=     ",
"   =99999=99999999999999393=    ",
"  =399993=99999399399399393=    ",
"  =39999=999393999399399333=    ",
"  =39993=99333399333333333=     ",
"  =33993=933OO3930000088O=      ",
"  =33933=93O08330++++008O       ",
"  =33933=33O0*30++w.e008O       ",
"  =33333=33O8*300+y.6001O       ",
"  =3333==333O1300002208*O       ",
"   =333===33=1180000081O        ",
"   =33= =3==**1188811*O         ",
"   =3=  =3$$77OOOOOOOO          ",
"   =3=   $qtt##@-;008O          ",
"    =   $7tq#4tq7;55;-o         ",
"        $7qttt4@4444#@o         ",
"       X@qt;#4X###@@@X          ",
"       X4t00-O-;;55;#@          ",
"       X4t001O@@@;-#;-o         ",
"      XX#q11O@###44#q77$        ",
"   $$XX@#qOO@##44444ttq7$       ",
"  $7X@@#4tq$@@#44444qqq77$      ",
"   $7$#44tt$@@##444ttttq7$      ",
"    $7qttq$@@@@##44tttq7$       ",
"                                "
};
