/* XPM */
static char *_632762784226[] = {
/* columns rows colors chars-per-pixel */
"32 32 13 1 ",
"  c #132529",
". c #15454A",
"X c #1D796D",
"o c #5F5F5F",
"O c #9C5369",
"+ c #E07993",
"@ c #2BB68E",
"# c #A0A0A0",
"$ c #FFA3B0",
"% c gray76",
"& c #FECBD0",
"* c gray91",
"= c None",
/* pixels */
"================================",
"================================",
"======OOO=====OOOOO=====OOO=====",
"=====O+++O=OOO+++++OOO=O+++O====",
"====O+$$$+O+$&$$$$$&$+O+$$$+O===",
"====O&$$&+O$&$$$$$$$&$O+&$$&O===",
"===O+$&&$+O&&$$$$$$$&&O+$&&$+O==",
"===O$$&$$O$&&&$$$$$&&&$O+$&$$O==",
"===O$$$$$O$$&&&&&&&&&$$+O$$$$O==",
"===O$$$$$O$$$&&&&&&&$$$$O$$$$O==",
"===O$$$$$O$$$$$$$$$$$$$$O$$$$O==",
"====O$$$$O$$$$$$$$$$$$$$+O$$$+O=",
"====O$$$$O+$$$$$$$$$$$+$+O$$$+O=",
"====O+$$$O+$$$$$$$$$$$+++O+$$+O=",
"====O+$$$O++$$$$+$$$$++++O+$$+O=",
"====O++$$O+++$$+++$$++++OO++$+O=",
"=====O+$+O++++++++++++++OO++$+O=",
"=====O+$+OO+++++++++++OO==O+++O=",
"=====O+++O#OO+++++++OO##  O+++O=",
"=====O++O#%##OOOOOOO##%#X.O+++O=",
"====O+++O#%*%%#####%%*%#@X O++O=",
"====O++O@X#%*********%#X@X. O+O=",
"====O+O@@X.#%*******%#.X@X. O+O=",
"====OO@@@X..#%%***%%#..XXXX =OO=",
"====OX@@@@X.XX#####XXXX.XXX ==O=",
"===o..X@@@XXX@X...X@@XXXXX.. ===",
"===o...X@@@XX@@@@@@@@@@XX@X. o==",
"==o#....@X@@X@@@@@@@@@@X@@@X.#o=",
"==o#%.X.XX@@@X@@@@@@@@@@@@@@X*#o",
"===o##%XXXX@@@@@@@@@@XX@@@@@*%#o",
"====oo#%%XXXX@@@@@@XXXXX@@**%#o=",
"======oo###%%%%%*******%%%##oo=="
};
