/* XPM */
static char *_632755177232[] = {
/* columns rows colors chars-per-pixel */
"32 32 35 1 ",
"  c #181626",
". c #132529",
"X c #2F2F2F",
"o c #534721",
"O c #5A2853",
"+ c #15454A",
"@ c #1D796D",
"# c #5F5F5F",
"$ c #C70000",
"% c #FF2627",
"& c #9D704C",
"* c #9C5369",
"= c #2EB545",
"- c #3DFD67",
"; c #C79D00",
": c #E3B700",
"> c #FFD600",
", c #FFFC00",
"< c #D7906E",
"1 c #9F17AD",
"2 c #E07993",
"3 c #2BB68E",
"4 c #6DFFA3",
"5 c #828189",
"6 c #A0A0A0",
"7 c #EEBE93",
"8 c #FFA3B0",
"9 c #FFE1AF",
"0 c gray76",
"q c #CECECE",
"w c #CCD0CE",
"e c #FECBD0",
"r c gray91",
"t c #F4F4F4",
"y c None",
/* pixels */
"yyyyyyyyyyyyyyyyyyyyyyyyyyyyyyyy",
"yyyyyy***yyyyy**o**yyyyy***yyyyy",
"yyyyy*222*y**o2o,o2o**y*222*yyyy",
"yyyy*2882**2o,o>>>o,o2**2882*yyy",
"yyyy*282*288>$::%::$>882*282*yyy",
"yyy*222*288o;:88888:;o882*222*yy",
"yyy*22*2888;eeeeeeeee;8882*22*yy",
"yyy*22*8888888888888888888*22*yy",
"yyy*2*288288888888888882882*2*yy",
"yyy*2*282882882888288288282*2*yy",
"yyy*2*222882882888288288222*2*yy",
"yyy*2*2o28222222222222282o2*2*yy",
"yyy*2*o<22779999999997722<o*2*yy",
"yyy*22o<2<OOOO99999OOOO<2<o22*yy",
"yyy*222o2OOq w99999w qOO2o222*yy",
"yyyy*222*&Ot 5999995 tO&*222*yyy",
"yyyy*222.o<71199999117<o.222*yyy",
"yyyy*22.@+o<799999997<o+@.22*yyy",
"yyyy*2.@3@+o&<77777<&o+@3@.2*yyy",
"yyyy*2.33r06ooooooooo60r33.2*yyy",
"yyyy*.+3r++@==-777-==@++r3+.*yyy",
"yyy*2.@0@@.@3--4-4--3@.@@0@.2*yy",
"yy***.6@3+..@33@4@33@..+3@6.***y",
"yyyyy.&=-.X=++++@++++=X.-=&.yyyy",
"yyyyy.99&o==-4-333-4-==o&99.yyyy",
"yyyy.+97o.=+=-64446-=+=.o79+.yyy",
"yyy.+@6#.++@360000063@++.#6@+.yy",
"yy.+@3r#+@@330rrrrr033@@+#r3@+.y",
"yy.@@30#+@@36660006663@@+#03@@.y",
"yy#600#.+@@30rrrrrrr03@@+.#006#y",
"yyy###yy..+6600rrr0066+..yy###yy",
"yyyyyyyyyy.##6666666##.yyyyyyyyy"
};
