/* XPM */
static char *_632755198705[] = {
/* columns rows colors chars-per-pixel */
"32 32 35 1 ",
"  c #181626",
". c #132529",
"X c #2F2F2F",
"o c #534721",
"O c #5A2853",
"+ c #15454A",
"@ c #1D796D",
"# c #5F5F5F",
"$ c #C70000",
"% c #FF2627",
"& c #9D704C",
"* c #9C5369",
"= c #2EB545",
"- c #3DFD67",
"; c #C79D00",
": c #E3B700",
"> c #FFD600",
", c #FFFC00",
"< c #D7906E",
"1 c #9F17AD",
"2 c #E07993",
"3 c #2BB68E",
"4 c #6DFFA3",
"5 c #828189",
"6 c #A0A0A0",
"7 c #EEBE93",
"8 c #FFA3B0",
"9 c #FFE1AF",
"0 c gray76",
"q c #CECECE",
"w c #CCD0CE",
"e c #FECBD0",
"r c gray91",
"t c #F4F4F4",
"y c None",
/* pixels */
"yyyyyyyyyyyyyyyyyyyyyyyyyyyyyyyy",
"yyyyyyyyyyyyyyyyyyyyyyyyyyyyyyyy",
"yyyyyy****yyyy*****yyyyyyyyyyyyy",
"yyyyy*2222****22222***yoyyyyyyyy",
"yyyy*288882*8e88888eo2o>oyyyyyyy",
"yyy*2e888e8*e888888o,o>:;oyyyyyy",
"yyy*88eee82*e88888o,%::$;oyyyyyy",
"yyy*888e82*8ee8888>::88882*yyyyy",
"yyy*88888*888eeeeeee888888*yyyyy",
"yyy*88888*88888888888888282*yyyy",
"yyy*88888*88888288288288282*yyyy",
"yyy*88888*88282888288288222*yyyy",
"yy*88888*88222288222222222*yyyyy",
"yy*88888*822oo2829999977o*yyyyyy",
"yy*88882*82o97229OOOO997oyyyyyyy",
"yy*28882*22o9&29OOq w997oyyyyyyy",
"yy*28822*22o7&299Ot 599<oyyyyyyy",
"yy*28822*222o<299991197&oyyyyyyy",
"yy*2882***22*<<7999997<oyyyyyyyy",
"yyy*822**2**&&<<777<<&oyyyyyyyyy",
"yyy*22*y*2##66ooooooooyyyyyyyyyy",
"yyy*22**2#0rr@@+=-997oyyyyyyyyyy",
"yy*22*y*#6r0@3r06-44-=Xyyyyyyyyy",
"yy*2*yyy#66@3r03.333@+Xyyyyyyyyy",
"yyy*yyy.++@3r033-o+++.yyyyyyyyyy",
"yyyyyyy.+@@r0@@-99o-@+yyyyyyyyyy",
"yyyyyy.+@@3r..+=99o@-=Xyyyyyyyyy",
"yyyyy#.+@3r0.+o<7<o3666#yyyyyyyy",
"yyy##.++33r.+@@ooo30r066#yyyyyyy",
"yy#6..+@3r0+@3333336006#6#yyyyyy",
"yy#660rrr0#+@3333@rrrr066#yyyyyy",
"yyy##606##..++@@@@rr0066#yyyyyyy"
};
