/* XPM */
static char *_6dacd220b3349cfbfbe1375e91596503bpkVWGbP99ClslK[] = {
/* columns rows colors chars-per-pixel */
"33 32 35 1 ",
"  c None",
". c #181626",
"X c #132529",
"o c #2F2F2F",
"O c #534721",
"+ c #5A2853",
"@ c #15454A",
"# c #1D796D",
"$ c #5F5F5F",
"% c #C70000",
"& c #FF2627",
"* c #9D704C",
"= c #9C5369",
"- c #2EB545",
"; c #3DFD67",
": c #C79D00",
"> c #E3B700",
", c #FFD600",
"< c #FFFC00",
"1 c #D7906E",
"2 c #9F17AD",
"3 c #E07993",
"4 c #2BB68E",
"5 c #6DFFA3",
"6 c #828189",
"7 c #A0A0A0",
"8 c #EEBE93",
"9 c #FFA3B0",
"0 c #FFE1AF",
"q c gray76",
"w c #CECECE",
"e c #CCD0CE",
"r c #FECBD0",
"t c gray91",
"y c #F4F4F4",
/* pixels */
"                                 ",
"      ===     ==O==     ===      ",
"     =333= ==O3O<O3O== =333=     ",
"    =3993==3O<O,,,O<O3==3993=    ",
"    =393=399,%>>&>>%,993=393=    ",
"   =333=399O:>99999>:O993=333=   ",
"   =33=3999:rrrrrrrrr:9993=33=   ",
"   =33=9999999999999999999=33=   ",
"   =3=399399999999999993993=3=   ",
"   =3=393993993999399399393=3=   ",
"   =3=333993993999399399333=3=   ",
"    ==3O39333333333333393O3=33=  ",
"    ==O1338800000000088331O=33=  ",
"    =3O131++++00000++++131O333=  ",
"    =33O3++w.e00000e.w++3O3333=  ",
"     =33=*+y.6000006.y+*==3333=  ",
"     =33XO1822000002281OX=3333=  ",
"     =3X@@O18000000081O@#X=333=  ",
"     =X@##@O*1888881*O@44#X333=  ",
"     =X@4tq7OOOOOOOOO7qt44X=33=  ",
"     X77q#@#--;888;--#@4t4#X33=  ",
"     O*-@@X#4;;5;5;;4#X#4t4X=3=  ",
"     O**OXXX#44#5#44#XX;5t4X ==  ",
"     XOOXXo-@@@@#@@@@-O00-tX =   ",
"    X@7$XXo-;5;444;5;-O008t7X    ",
"    X#q$XX-@-;75557;-@O18*OqX    ",
"   X@4t$X@@#47qqqq744#@OOO$q@X   ",
"  X@#4t$@#44qtttttqq44#@@X$7@@X  ",
" X@#44t$@44777qqq77744#@@XX$77$  ",
" $7qtt$X@44qtttttttq7##@XXX$$$   ",
"  $$$$  X@#77qqttqq77@XX         ",
"                                 "
};
